<svg width="20" height="20" viewBox="0 0 20 20" fill="none" xmlns="http://www.w3.org/2000/svg">
<path d="M3.12402 2.22754H8.12402C8.36206 2.22754 8.59047 2.32192 8.75879 2.49023C8.9271 2.65855 9.02148 2.88697 9.02148 3.125C9.02148 3.36303 8.9271 3.59145 8.75879 3.75977C8.59047 3.92808 8.36206 4.02246 8.12402 4.02246H4.02148V15.9775H8.12402C8.36206 15.9775 8.59047 16.0719 8.75879 16.2402C8.9271 16.4085 9.02148 16.637 9.02148 16.875C9.02148 17.113 8.9271 17.3415 8.75879 17.5098C8.59047 17.6781 8.36206 17.7725 8.12402 17.7725H3.12402C2.88599 17.7725 2.65757 17.6781 2.48926 17.5098C2.32094 17.3415 2.22656 17.113 2.22656 16.875V3.125C2.22656 2.88697 2.32094 2.65855 2.48926 2.49023C2.65757 2.32192 2.88599 2.22754 3.12402 2.22754ZM13.748 5.97656C13.9865 5.97656 14.2152 6.07162 14.3838 6.24023L17.5088 9.36523C17.5923 9.44855 17.6589 9.5473 17.7041 9.65625C17.7493 9.76537 17.7725 9.88285 17.7725 10.001C17.7724 10.1189 17.7494 10.2358 17.7041 10.3447C17.6588 10.4537 17.5924 10.5534 17.5088 10.6367H17.5078L14.3828 13.7617C14.2142 13.9302 13.9854 14.0254 13.7471 14.0254C13.5087 14.0253 13.2799 13.9302 13.1113 13.7617C12.9428 13.5932 12.8487 13.3643 12.8486 13.126C12.8486 12.8877 12.9429 12.6588 13.1113 12.4902L14.6367 10.9658L14.7051 10.8975H8.12402C7.88599 10.8975 7.65757 10.8031 7.48926 10.6348C7.32094 10.4665 7.22656 10.238 7.22656 10C7.22656 9.76197 7.32094 9.53355 7.48926 9.36523C7.65757 9.19692 7.88599 9.10254 8.12402 9.10254H14.7051L14.6367 9.03418L13.1123 7.51172C12.9437 7.34315 12.8487 7.11437 12.8486 6.87598C12.8486 6.63761 12.9438 6.40883 13.1123 6.24023C13.2809 6.07166 13.5097 5.97661 13.748 5.97656Z" fill="#543C52" stroke="#543C52" style="fill:#543C52;fill:color(display-p3 0.3294 0.2353 0.3216);fill-opacity:1;stroke:#543C52;stroke:color(display-p3 0.3294 0.2353 0.3216);stroke-opacity:1;" stroke-width="0.08"/>
</svg>
