<svg width="17" height="17" viewBox="0 0 17 17" fill="none" xmlns="http://www.w3.org/2000/svg">
<path d="M0.833008 8.34843C0.833008 6.35528 1.62478 4.44377 3.03415 3.0344C4.44352 1.62503 6.35504 0.833252 8.34819 0.833252C10.3413 0.833252 12.2528 1.62503 13.6622 3.0344C15.0716 4.44377 15.8634 6.35528 15.8634 8.34843V13.13C15.8634 13.9266 15.8634 14.323 15.745 14.6415C15.6509 14.8938 15.5036 15.123 15.3132 15.3134C15.1227 15.5039 14.8936 15.6511 14.6412 15.7452C14.3228 15.8636 13.9254 15.8636 13.1297 15.8636H8.34819C6.35504 15.8636 4.44352 15.0718 3.03415 13.6625C1.62478 12.2531 0.833008 10.3416 0.833008 8.34843Z" stroke="#070A1C" style="stroke:#070A1C;stroke:color(display-p3 0.0275 0.0392 0.1098);stroke-opacity:1;" stroke-width="1.66667"/>
<path d="M5.53027 7.40894H11.1667M8.34846 11.1665H11.1667" stroke="#070A1C" style="stroke:#070A1C;stroke:color(display-p3 0.0275 0.0392 0.1098);stroke-opacity:1;" stroke-width="1.66667" stroke-linecap="round" stroke-linejoin="round"/>
</svg>
