<svg width="20" height="20" viewBox="0 0 20 20" fill="none" xmlns="http://www.w3.org/2000/svg">
<path d="M17.1325 8.62499L11.071 2.56355C10.7868 2.27946 10.4015 2.11987 9.99966 2.11987C9.59784 2.11987 9.21247 2.27946 8.9283 2.56355L2.86686 8.62499C2.72557 8.76541 2.61357 8.93249 2.53736 9.11653C2.46114 9.30057 2.42222 9.49791 2.42286 9.69711V16.9708C2.42286 17.212 2.51865 17.4432 2.68916 17.6138C2.85967 17.7843 3.09094 17.8801 3.33208 17.8801H16.6672C16.9084 17.8801 17.1396 17.7843 17.3102 17.6138C17.4807 17.4432 17.5765 17.212 17.5765 16.9708V9.69711C17.5771 9.49791 17.5382 9.30057 17.462 9.11653C17.3857 8.93249 17.2737 8.76541 17.1325 8.62499ZM15.758 16.0616H4.24129V9.82213L9.99966 4.06376L15.758 9.82213V16.0616Z" fill="#070A1C" style="fill:#070A1C;fill:color(display-p3 0.0275 0.0392 0.1098);fill-opacity:1;"/>
</svg>
