<svg width="20" height="20" viewBox="0 0 20 20" fill="none" xmlns="http://www.w3.org/2000/svg">
<g clip-path="url(#clip0_14079_2203)">
<path d="M1.66602 5.00008C1.66602 4.11603 2.01721 3.26818 2.64233 2.64306C3.26745 2.01794 4.11529 1.66675 4.99935 1.66675H14.9993C15.8834 1.66675 16.7312 2.01794 17.3564 2.64306C17.9815 3.26818 18.3327 4.11603 18.3327 5.00008V15.0001C18.3327 15.8841 17.9815 16.732 17.3564 17.3571C16.7312 17.9822 15.8834 18.3334 14.9993 18.3334H4.99935C4.11529 18.3334 3.26745 17.9822 2.64233 17.3571C2.01721 16.732 1.66602 15.8841 1.66602 15.0001V5.00008Z" stroke="#070A1C" style="stroke:#070A1C;stroke:color(display-p3 0.0275 0.0392 0.1098);stroke-opacity:1;" stroke-width="1.66667" stroke-linecap="round" stroke-linejoin="round"/>
<path d="M7.08236 9.16667C8.23295 9.16667 9.16569 8.23393 9.16569 7.08333C9.16569 5.93274 8.23295 5 7.08236 5C5.93176 5 4.99902 5.93274 4.99902 7.08333C4.99902 8.23393 5.93176 9.16667 7.08236 9.16667Z" stroke="#070A1C" style="stroke:#070A1C;stroke:color(display-p3 0.0275 0.0392 0.1098);stroke-opacity:1;" stroke-width="1.66667" stroke-linecap="round" stroke-linejoin="round"/>
<path d="M12.104 10.5176L4.99902 18.3334H15.1099C15.9645 18.3334 16.7842 17.9939 17.3885 17.3896C17.9928 16.7852 18.3324 15.9656 18.3324 15.1109V15.0001C18.3324 14.6118 18.1865 14.4626 17.924 14.1751L14.5657 10.5126C14.4092 10.3418 14.2188 10.2056 14.0067 10.1126C13.7946 10.0195 13.5654 9.9717 13.3338 9.97217C13.1021 9.97264 12.8731 10.0214 12.6614 10.1153C12.4497 10.2092 12.2598 10.3462 12.104 10.5176Z" stroke="#070A1C" style="stroke:#070A1C;stroke:color(display-p3 0.0275 0.0392 0.1098);stroke-opacity:1;" stroke-width="1.66667" stroke-linecap="round" stroke-linejoin="round"/>
</g>
<defs>
<clipPath id="clip0_14079_2203">
<rect width="20" height="20" fill="white" style="fill:white;fill-opacity:1;"/>
</clipPath>
</defs>
</svg>
