<svg width="20" height="20" viewBox="0 0 20 20" fill="none" xmlns="http://www.w3.org/2000/svg">
<circle cx="2.34996" cy="2.34996" r="2.34996" transform="matrix(-1 0 0 1 12.3066 7.65015)" stroke="#070A1C" style="stroke:#070A1C;stroke:color(display-p3 0.0275 0.0392 0.1098);stroke-opacity:1;" stroke-width="1.8"/>
<path d="M9.95605 2.16699V1.26699H9.95601L9.95605 2.16699ZM13.4814 4.46777L13.0314 5.24718L13.0314 5.2472L13.4814 4.46777ZM15.4395 9.2168L14.5395 9.21677V9.2168H15.4395ZM13.4814 15.5322L13.0314 14.7528L13.0314 14.7528L13.4814 15.5322ZM9.95605 17.833L9.95601 18.733H9.95605V17.833ZM6.43164 15.5322L6.88169 14.7528L6.88164 14.7528L6.43164 15.5322ZM3.68945 10H4.58945L4.58945 9.99993L3.68945 10ZM6.43164 4.46777L6.88164 5.2472L6.8817 5.24716L6.43164 4.46777ZM7.51252 3.08081L6.64702 2.834L7.51252 3.08081ZM2.94045 8.28125L2.32742 8.94018L2.94045 8.28125ZM4.83943 15.2564L4.67802 14.371L4.83943 15.2564ZM8.14308 17.6219L7.93543 18.4976L8.14308 17.6219ZM12.3989 16.9191L11.5336 16.6716L12.3989 16.9191ZM11.7679 17.6219L11.9755 18.4976L11.7679 17.6219ZM15.0729 15.2565L15.2342 14.3711L15.0729 15.2565ZM16.7678 6.13025L17.5496 5.68441L16.7678 6.13025ZM2.94025 11.718L2.32743 11.0588L2.94025 11.718ZM15.0729 4.74274L14.911 3.85743L15.0729 4.74274ZM15.981 4.99593L15.2893 5.57172L15.981 4.99593ZM3.93116 4.99627L3.23899 4.42104L3.93116 4.99627ZM4.8394 4.7429L4.67745 5.62821L4.8394 4.7429ZM16.7552 11.3248L16.3592 12.133L16.7552 11.3248ZM17.4003 12.4427L18.2554 12.7234L17.4003 12.4427ZM12.3989 3.0809L13.2642 2.83333L12.3989 3.0809ZM9.95605 2.16699V3.06699C10.5089 3.06699 11.0459 3.13192 11.5602 3.25385L11.7679 2.37813L11.9755 1.5024C11.3267 1.34858 10.6504 1.26699 9.95605 1.26699V2.16699ZM12.3989 3.0809L11.5336 3.32847C11.7567 4.10825 12.2719 4.80862 13.0314 5.24718L13.4814 4.46777L13.9315 3.68837C13.5929 3.49289 13.3643 3.18314 13.2642 2.83333L12.3989 3.0809ZM13.4814 4.46777L13.0314 5.2472C13.7253 5.6478 14.5061 5.76133 15.2348 5.62806L15.0729 4.74274L14.911 3.85743C14.5844 3.91715 14.2399 3.86644 13.9314 3.68835L13.4814 4.46777ZM15.981 4.99593L15.2893 5.57172C15.5499 5.88483 15.7834 6.22076 15.986 6.57609L16.7678 6.13025L17.5496 5.68441C17.2941 5.23635 17.0002 4.81355 16.6727 4.42013L15.981 4.99593ZM16.3579 7.35562L15.8097 6.64186C15.0395 7.23346 14.5395 8.16608 14.5395 9.21677L15.4395 9.2168L16.3395 9.21682C16.3395 8.74995 16.5596 8.33553 16.9062 8.06938L16.3579 7.35562ZM15.4395 9.2168H14.5395C14.5395 10.5004 15.2838 11.6061 16.3592 12.133L16.7552 11.3248L17.1512 10.5166C16.6682 10.2799 16.3395 9.78643 16.3395 9.2168H15.4395ZM17.4003 12.4427L16.5452 12.1619C16.2708 12.9978 15.8408 13.7641 15.289 14.4275L15.9809 15.003L16.6728 15.5786C17.3664 14.7448 17.9088 13.7792 18.2554 12.7234L17.4003 12.4427ZM15.0729 15.2565L15.2342 14.3711C14.5054 14.2383 13.7248 14.3525 13.0314 14.7528L13.4814 15.5322L13.9314 16.3116C14.2402 16.1334 14.5851 16.0824 14.9115 16.1419L15.0729 15.2565ZM13.4814 15.5322L13.0314 14.7528C12.2718 15.1914 11.7567 15.8918 11.5336 16.6716L12.3989 16.9191L13.2642 17.1667C13.3643 16.8168 13.5929 16.5071 13.9315 16.3116L13.4814 15.5322ZM11.7679 17.6219L11.5603 16.7462C11.046 16.8681 10.509 16.933 9.95605 16.933V17.833V18.733C10.6504 18.733 11.3267 18.6514 11.9755 18.4976L11.7679 17.6219ZM9.95605 17.833L9.9561 16.933C9.40248 16.933 8.86517 16.8682 8.35073 16.7462L8.14308 17.6219L7.93543 18.4976C8.58479 18.6516 9.26141 18.733 9.95601 18.733L9.95605 17.833ZM7.51251 16.9192L8.37801 16.6724C8.15574 15.893 7.642 15.1919 6.88169 14.7528L6.43164 15.5322L5.98159 16.3116C6.3193 16.5066 6.54715 16.8158 6.64702 17.166L7.51251 16.9192ZM6.43164 15.5322L6.88164 14.7528C6.18819 14.3524 5.40724 14.238 4.67802 14.371L4.83943 15.2564L5.00084 16.1418C5.32742 16.0822 5.67264 16.1332 5.98164 16.3116L6.43164 15.5322ZM3.93121 15.0028L4.62338 14.4275C4.12508 13.8279 3.72669 13.1437 3.45228 12.3996L2.60788 12.711L1.76347 13.0224C2.10969 13.9612 2.61195 14.8234 3.23903 15.578L3.93121 15.0028ZM2.94025 11.718L3.55307 12.3771C4.18891 11.7859 4.58945 10.9399 4.58945 10H3.68945H2.78945C2.78945 10.4182 2.61309 10.7932 2.32743 11.0588L2.94025 11.718ZM3.68945 10L4.58945 9.99993C4.58938 9.06042 4.18936 8.21389 3.55348 7.62231L2.94045 8.28125L2.32742 8.94018C2.61295 9.20581 2.78942 9.58141 2.78945 10.0001L3.68945 10ZM2.60804 7.28775L3.45242 7.59924C3.7269 6.8552 4.12519 6.17091 4.62333 5.57151L3.93116 4.99627L3.23899 4.42104C2.61194 5.17555 2.10987 6.03777 1.76367 6.97626L2.60804 7.28775ZM4.8394 4.7429L4.67745 5.62821C5.40653 5.76159 6.18765 5.64787 6.88164 5.2472L6.43164 4.46777L5.98164 3.68835C5.67295 3.86657 5.32806 3.91736 5.00135 3.8576L4.8394 4.7429ZM6.43164 4.46777L6.8817 5.24716C7.64197 4.80814 8.15574 4.10708 8.37801 3.32763L7.51252 3.08081L6.64702 2.834C6.54717 3.18416 6.31932 3.49335 5.98158 3.68839L6.43164 4.46777ZM8.14312 2.37811L8.35076 3.25383C8.8652 3.13185 9.40253 3.06702 9.9561 3.06699L9.95605 2.16699L9.95601 1.26699C9.26145 1.26702 8.58481 1.34842 7.93548 1.50239L8.14312 2.37811ZM7.51252 3.08081L8.37801 3.32763C8.38673 3.29705 8.39717 3.27095 8.40752 3.25042C8.41794 3.22976 8.42625 3.21872 8.42934 3.21504C8.43222 3.2116 8.42773 3.21788 8.41334 3.22733C8.39793 3.23746 8.37626 3.24778 8.35076 3.25383L8.14312 2.37811L7.93548 1.50239C7.15532 1.68737 6.78277 2.35797 6.64702 2.834L7.51252 3.08081ZM2.94045 8.28125L3.55348 7.62231C3.52695 7.59762 3.50519 7.57235 3.48897 7.54929C3.47262 7.52604 3.46525 7.50984 3.46271 7.5031C3.4603 7.49673 3.46414 7.50411 3.46486 7.52385C3.46565 7.5454 3.46228 7.5725 3.45242 7.59924L2.60804 7.28775L1.76367 6.97626C1.44946 7.828 1.93031 8.57073 2.32742 8.94018L2.94045 8.28125ZM4.83943 15.2564L4.67802 14.371C4.64676 14.3767 4.61877 14.3788 4.5958 14.3786C4.57268 14.3784 4.55908 14.3759 4.55437 14.3747C4.54996 14.3737 4.55747 14.3749 4.5722 14.3835C4.58797 14.3927 4.60672 14.4075 4.62338 14.4275L3.93121 15.0028L3.23903 15.578C3.75028 16.1932 4.51446 16.2304 5.00084 16.1418L4.83943 15.2564ZM8.14308 17.6219L8.35073 16.7462C8.37624 16.7522 8.3979 16.7625 8.41332 16.7727C8.42771 16.7821 8.4322 16.7884 8.42932 16.785C8.42624 16.7813 8.41793 16.7702 8.40751 16.7496C8.39716 16.7291 8.38673 16.703 8.37801 16.6724L7.51251 16.9192L6.64702 17.166C6.78277 17.6421 7.15531 18.3126 7.93543 18.4976L8.14308 17.6219ZM12.3989 16.9191L11.5336 16.6716C11.5248 16.7023 11.5143 16.7285 11.5039 16.7491C11.4934 16.7699 11.4851 16.781 11.4819 16.7848C11.479 16.7883 11.4834 16.782 11.4978 16.7726C11.5131 16.7625 11.5348 16.7522 11.5603 16.7462L11.7679 17.6219L11.9755 18.4976C12.7556 18.3126 13.1282 17.6421 13.2642 17.1667L12.3989 16.9191ZM15.9809 15.003L15.289 14.4275C15.3056 14.4075 15.3243 14.3928 15.34 14.3836C15.3547 14.375 15.3622 14.3738 15.3577 14.3749C15.353 14.376 15.3394 14.3786 15.3163 14.3788C15.2934 14.379 15.2655 14.3768 15.2342 14.3711L15.0729 15.2565L14.9115 16.1419C15.398 16.2306 16.1616 16.1931 16.6728 15.5786L15.9809 15.003ZM16.7678 6.13025L15.986 6.57609C15.9692 6.5467 15.9602 6.51125 15.9594 6.48094C15.9588 6.45479 15.9644 6.44811 15.9584 6.46351C15.9523 6.47921 15.9379 6.50753 15.91 6.54314C15.8823 6.57835 15.8477 6.61273 15.8097 6.64186L16.3579 7.35562L16.9062 8.06938C17.2063 7.83885 17.4822 7.51102 17.6357 7.11672C17.7945 6.70917 17.834 6.18309 17.5496 5.68441L16.7678 6.13025ZM2.60788 12.711L3.45228 12.3996C3.46214 12.4264 3.46552 12.4535 3.46472 12.475C3.464 12.4948 3.46015 12.5022 3.46254 12.4959C3.46506 12.4892 3.4724 12.4731 3.48871 12.4499C3.50488 12.4269 3.52659 12.4017 3.55307 12.3771L2.94025 11.718L2.32743 11.0588C1.93006 11.4283 1.44942 12.1709 1.76347 13.0224L2.60788 12.711ZM15.0729 4.74274L15.2348 5.62806C15.266 5.62236 15.2938 5.62017 15.3167 5.62036C15.3398 5.62055 15.3533 5.6231 15.358 5.62424C15.3624 5.62531 15.3549 5.62411 15.3403 5.61552C15.3246 5.60633 15.3059 5.59168 15.2893 5.57172L15.981 4.99593L16.6727 4.42013C16.1614 3.80588 15.3978 3.76839 14.911 3.85743L15.0729 4.74274ZM3.93116 4.99627L4.62333 5.57151C4.60666 5.59157 4.5879 5.60631 4.57209 5.61556C4.55734 5.62421 4.54979 5.62543 4.55415 5.62437C4.55882 5.62324 4.57236 5.62069 4.59542 5.6205C4.61833 5.62031 4.64626 5.62251 4.67745 5.62821L4.8394 4.7429L5.00135 3.8576C4.51469 3.76857 3.75033 3.80575 3.23899 4.42104L3.93116 4.99627ZM16.7552 11.3248L16.3592 12.133C16.4024 12.1542 16.4433 12.181 16.4775 12.2101C16.512 12.2395 16.5317 12.2643 16.5408 12.2784C16.5497 12.2922 16.5428 12.2867 16.5382 12.2608C16.5329 12.2308 16.5347 12.1941 16.5452 12.1619L17.4003 12.4427L18.2554 12.7234C18.4344 12.1783 18.2907 11.6712 18.0541 11.3038C17.8252 10.9484 17.4901 10.6826 17.1512 10.5166L16.7552 11.3248ZM11.7679 2.37813L11.5602 3.25385C11.5347 3.24781 11.5131 3.23749 11.4977 3.2274C11.4834 3.21797 11.479 3.21174 11.4819 3.21526C11.4851 3.21901 11.4934 3.23015 11.5039 3.25091C11.5143 3.27155 11.5248 3.29776 11.5336 3.32847L12.3989 3.0809L13.2642 2.83333C13.1282 2.35794 12.7556 1.68736 11.9755 1.5024L11.7679 2.37813Z" fill="#070A1C" style="fill:#070A1C;fill:color(display-p3 0.0275 0.0392 0.1098);fill-opacity:1;"/>
</svg>
